<?xml version="1.0" standalone="no"?>
<!DOCTYPE svg PUBLIC "-//W3C//DTD SVG 20010904//EN"
 "http://www.w3.org/TR/2001/REC-SVG-20010904/DTD/svg10.dtd">
<svg version="1.0" xmlns="http://www.w3.org/2000/svg"
 width="512.000000pt" height="512.000000pt" viewBox="0 0 512.000000 512.000000"
 preserveAspectRatio="xMidYMid meet">
<metadata>
Created by potrace 1.14, written by Peter Selinger 2001-2017
</metadata>
<g transform="translate(0.000000,512.000000) scale(0.100000,-0.100000)"
fill="#000000" stroke="none">
<path d="M1485 4861 c-186 -53 -319 -179 -396 -374 -29 -71 -33 -95 -35 -187
-4 -165 -5 -165 -88 -207 -194 -97 -353 -227 -446 -363 -54 -80 -69 -113 -108
-235 -4 -11 -8 -640 -9 -1397 l-3 -1378 80 -80 80 -80 0 -160 0 -160 320 0
320 0 0 159 0 160 49 50 c47 48 51 50 80 40 22 -8 40 -8 62 0 29 10 33 8 80
-40 l49 -50 0 -159 0 -160 1040 0 1040 0 0 159 0 159 48 51 c47 50 48 50 86
39 29 -9 42 -9 57 0 10 7 21 12 23 12 3 0 27 -22 55 -49 l51 -50 0 -160 0
-161 320 0 320 0 0 160 0 160 80 80 80 80 0 1353 c-1 1470 1 1415 -55 1544
-78 176 -268 354 -502 472 -63 31 -83 46 -83 62 0 11 -6 32 -14 48 -9 17 -11
32 -5 42 16 25 10 125 -12 195 -68 223 -227 381 -431 429 -53 12 -218 15
-1068 14 -920 0 -1010 -2 -1065 -18z"/>
</g>
</svg>
