<svg width="22" height="22" viewBox="0 0 22 22" fill="none" xmlns="http://www.w3.org/2000/svg">
<path fill-rule="evenodd" clip-rule="evenodd" d="M10.8331 4.18889C12.8673 4.18889 14.2395 5.06759 15.0219 5.80185L18.0793 2.81667C16.2016 1.0713 13.7581 0 10.8331 0C6.59601 0 2.93675 2.43148 1.15527 5.97037L4.65805 8.69074C5.53675 6.0787 7.96824 4.18889 10.8331 4.18889Z" fill="#EA4335"/>
<path fill-rule="evenodd" clip-rule="evenodd" d="M21.233 11.0742C21.233 10.1834 21.1608 9.53345 21.0043 8.85938H10.833V12.8797H16.8034C16.683 13.8788 16.033 15.3834 14.5886 16.3946L18.0071 19.0427C20.0534 17.1529 21.233 14.3723 21.233 11.0742Z" fill="#4285F4"/>
<path fill-rule="evenodd" clip-rule="evenodd" d="M4.67037 12.976C4.44167 12.3019 4.30926 11.5797 4.30926 10.8334C4.30926 10.0871 4.44167 9.3649 4.65833 8.69083L1.15556 5.97046C0.421296 7.43898 0 9.08805 0 10.8334C0 12.5788 0.421296 14.2279 1.15556 15.6964L4.67037 12.976Z" fill="#FBBC05"/>
<path fill-rule="evenodd" clip-rule="evenodd" d="M10.8337 21.6666C13.7587 21.6666 16.2143 20.7036 18.0078 19.0425L14.5893 16.3943C13.6745 17.0323 12.4467 17.4777 10.8337 17.4777C7.96889 17.4777 5.53741 15.5879 4.67075 12.9758L1.16797 15.6962C2.94945 19.2351 6.59667 21.6666 10.8337 21.6666Z" fill="#34A853"/>
</svg>
