<svg width="110" height="95" viewBox="0 0 110 95" fill="none" xmlns="http://www.w3.org/2000/svg">
<path d="M92.9821 59.9212C95.2645 59.9212 97.1147 58.071 97.1147 55.7887C97.1147 53.5063 95.2645 51.6561 92.9821 51.6561C90.6998 51.6561 88.8496 53.5063 88.8496 55.7887C88.8496 58.071 90.6998 59.9212 92.9821 59.9212Z" fill="#D6D6D6"/>
<path d="M103.313 24.7944H70.2528C69.1117 24.7944 68.1865 25.7196 68.1865 26.8607C68.1865 28.0018 69.1117 28.927 70.2528 28.927H101.247V35.1257C101.247 36.2668 102.172 37.192 103.313 37.192C104.454 37.192 105.379 36.2668 105.379 35.1257V26.8607C105.379 25.7193 104.454 24.7944 103.313 24.7944Z" fill="#D6D6D6"/>
<path d="M41.3248 82.6497H20.9122C18.6528 82.6559 16.4845 81.7579 14.8912 80.1557C13.3004 78.5546 12.4044 76.3915 12.3972 74.1346V66.1196C12.3972 64.9785 11.472 64.0533 10.3309 64.0533C9.18982 64.0533 8.26465 64.9785 8.26465 66.1196V74.1346C8.26568 81.1191 13.9278 86.7812 20.9122 86.7822H41.3248C42.4659 86.7822 43.3911 85.8571 43.3911 84.716C43.3911 83.5749 42.4659 82.6497 41.3248 82.6497Z" fill="#D6D6D6"/>
<path d="M117.839 80.1289C116.569 79.1066 115.156 78.2775 113.644 77.6688V68.1867H119.843C120.984 68.1867 121.909 67.2615 121.909 66.1204V45.4578C121.909 44.3167 120.984 43.3915 119.843 43.3915H113.644V18.5964C113.644 17.4553 112.719 16.5301 111.578 16.5301H103.313V10.3313C103.313 9.19022 102.388 8.26505 101.247 8.26505H84.7168V2.06626C84.7168 0.925169 83.7916 0 82.6505 0H10.5069C7.81641 0.0074902 5.23746 1.07523 3.32875 2.97129L2.97335 3.32668C0.725 5.56729 -0.337576 8.73564 0.105379 11.8789C0.0472658 12.0463 0.0116227 12.2207 0 12.3976V78.8713C0 87.8048 7.24122 95.0471 16.1747 95.0481H70.3955C71.5182 104.09 79.758 110.509 88.7997 109.387C91.8387 109.009 94.7128 107.794 97.0999 105.875C104.21 111.602 114.616 110.481 120.342 103.372C126.069 96.2618 124.948 85.8558 117.839 80.1289ZM117.777 47.524V64.0541H91.0623C86.4976 64.0541 82.7972 60.3537 82.7972 55.7891C82.7972 51.2245 86.4976 47.524 91.0623 47.524H117.777ZM5.89505 6.25044L6.24838 5.89711C7.37991 4.77048 8.91024 4.1364 10.5069 4.13253H80.5842V8.26505H14.4638C13.3227 8.26505 12.3976 9.19022 12.3976 10.3313C12.3976 11.4724 13.3227 12.3976 14.4638 12.3976H99.1806V16.5301H10.1557C6.82926 16.5296 4.13304 13.8326 4.1333 10.5062C4.13356 8.90998 4.76713 7.3794 5.89505 6.25044ZM70.3955 90.9156H16.1747C9.52392 90.9156 4.13252 85.5242 4.13252 78.8734C4.13252 78.8726 4.13252 78.8721 4.13252 78.8713V18.6522C5.87438 19.948 7.98481 20.6523 10.1557 20.6626H109.512V43.3915H91.0623C84.2152 43.3915 78.6647 48.942 78.6647 55.7891C78.6647 62.6362 84.2152 68.1867 91.0623 68.1867H109.512V76.5943C108.827 76.5039 108.137 76.4564 107.446 76.4517C103.686 76.4442 100.038 77.7305 97.1143 80.0945C90.016 74.3811 79.6299 75.5036 73.9162 82.602C71.9925 84.9918 70.7734 87.8709 70.3955 90.9156ZM86.783 105.379C79.9359 105.379 74.3855 99.8289 74.3855 92.9818C74.3855 86.1347 79.9359 80.5842 86.783 80.5842C93.6301 80.5842 99.1806 86.1347 99.1806 92.9818C99.1739 99.8258 93.6273 105.372 86.783 105.379ZM107.446 105.379C104.755 105.382 102.137 104.503 99.9947 102.875C104.419 97.0216 104.419 88.942 99.9947 83.0886C102.137 81.4596 104.755 80.5799 107.446 80.5842C114.293 80.5842 119.843 86.1347 119.843 92.9818C119.843 99.8286 114.293 105.379 107.446 105.379Z" fill="#D6D6D6"/>
</svg>
