<svg width="9" height="9" viewBox="0 0 9 9" fill="none" xmlns="http://www.w3.org/2000/svg">
<path d="M4.50011 0.00433784C2.65692 0.00433784 0.906622 -0.159496 0.238078 1.55492C-0.0380711 2.26301 0.00203148 3.18261 0.00203148 4.49937C0.00203148 5.65483 -0.0350253 6.74079 0.238078 7.4433C0.905099 9.15874 2.66961 8.9944 4.4991 8.9944C6.26411 8.9944 8.08396 9.17801 8.76062 7.4433C9.03728 6.72811 8.99667 5.82221 8.99667 4.49937C8.99667 2.74335 9.09363 1.60971 8.24132 0.758581C7.37835 -0.103701 6.21132 0.00433784 4.49808 0.00433784H4.50011ZM4.09706 0.814376C7.94182 0.80829 8.43117 0.381207 8.16111 6.31422C8.06517 8.41261 6.46615 8.18233 4.50062 8.18233C0.916774 8.18233 0.813727 8.07987 0.813727 4.49734C0.813727 0.873214 1.098 0.816405 4.09706 0.813362V0.814376ZM6.90119 1.5605C6.60321 1.5605 6.36158 1.80194 6.36158 2.09968C6.36158 2.39743 6.60321 2.63886 6.90119 2.63886C7.19916 2.63886 7.44079 2.39743 7.44079 2.09968C7.44079 1.80194 7.19916 1.5605 6.90119 1.5605ZM4.50011 2.19098C3.22445 2.19098 2.19041 3.22471 2.19041 4.49937C2.19041 5.77402 3.22445 6.80724 4.50011 6.80724C5.77578 6.80724 6.80931 5.77402 6.80931 4.49937C6.80931 3.22471 5.77578 2.19098 4.50011 2.19098ZM4.50011 3.00102C6.48239 3.00102 6.48493 5.99771 4.50011 5.99771C2.51834 5.99771 2.51529 3.00102 4.50011 3.00102Z" fill="#969696"/>
</svg>
