<svg width="89" height="42" viewBox="0 0 89 42" fill="none" xmlns="http://www.w3.org/2000/svg">
<path d="M7.6542 26.2041H0.10083C0.315618 25.3927 0.446877 24.2472 0.494608 22.7675C0.542338 21.264 0.566204 19.486 0.566204 17.4336V12.2787C0.566204 10.2263 0.542338 8.46026 0.494608 6.98061C0.446877 5.47709 0.315618 4.31962 0.10083 3.5082H6.86665C9.15772 3.5082 10.8522 3.98551 11.95 4.94012C13.0716 5.89473 13.6325 7.09993 13.6325 8.55572C13.6325 9.67739 13.2506 10.7633 12.4869 11.8133C11.7471 12.8395 10.6374 13.5197 9.15772 13.8538V13.9254C11.2817 14.2357 12.7972 14.9158 13.7041 15.9659C14.6109 17.016 15.0644 18.2689 15.0644 19.7247C15.0644 21.6816 14.3365 23.2568 12.8807 24.45C11.4488 25.6194 9.70662 26.2041 7.6542 26.2041ZM2.67828 6.83741V12.5651C2.67828 12.9947 2.73795 13.281 2.85727 13.4242C3.00047 13.5436 3.19139 13.6032 3.43004 13.6032H6.43707C7.91672 13.6032 9.08612 13.1259 9.94527 12.1713C10.8283 11.1928 11.2698 10.0354 11.2698 8.69891C11.2698 7.6727 10.876 6.71809 10.0885 5.83507C9.32478 4.92819 8.09571 4.47475 6.40127 4.47475H4.96935C4.13407 4.47475 3.53744 4.65374 3.17946 5.01172C2.84534 5.3697 2.67828 5.97826 2.67828 6.83741ZM2.67828 14.6414V22.8749C2.67828 23.7341 2.84534 24.3426 3.17946 24.7006C3.53744 25.0586 4.13407 25.2376 4.96935 25.2376H6.58026C8.44176 25.2376 9.89754 24.7125 10.9476 23.6625C12.0216 22.6124 12.5585 21.2998 12.5585 19.7247C12.5585 17.9825 11.9619 16.7057 10.7686 15.8943C9.57536 15.059 8.11958 14.6414 6.40127 14.6414H2.67828Z" fill="black"/>
<path d="M26.8822 26.6337C24.257 26.6337 22.133 25.8223 20.5102 24.1994C18.9112 22.5766 18.1117 20.4526 18.1117 17.8274C18.1117 16.658 18.3026 15.5363 18.6845 14.4624C19.0663 13.3884 19.6271 12.4577 20.367 11.6701C21.1068 10.8587 22.0256 10.2144 23.1234 9.73705C24.2212 9.23588 25.4741 8.98529 26.8822 8.98529C29.5074 8.98529 31.6195 9.79671 33.2184 11.4196C34.8413 13.0424 35.6527 15.1664 35.6527 17.7916C35.6527 18.961 35.4618 20.0827 35.0799 21.1566C34.6981 22.2305 34.1372 23.1732 33.3974 23.9846C32.6576 24.7722 31.7388 25.4166 30.641 25.9177C29.5432 26.395 28.2902 26.6337 26.8822 26.6337ZM26.8822 25.7029C28.8153 25.7029 30.3188 24.9631 31.3927 23.4835C32.4905 21.98 33.0394 20.0707 33.0394 17.7558C33.0394 15.4647 32.4905 13.5794 31.3927 12.0997C30.3188 10.6201 28.8153 9.88024 26.8822 9.88024C24.9491 9.88024 23.4337 10.632 22.3358 12.1355C21.2619 13.6152 20.7249 15.5125 20.7249 17.8274C20.7249 20.1423 21.2619 22.0277 22.3358 23.4835C23.4337 24.9393 24.9491 25.6791 26.8822 25.7029Z" fill="black"/>
<path d="M39.3961 26.2041C39.5154 26.0132 39.5989 25.6552 39.6467 25.1302C39.7183 24.5813 39.7541 23.9608 39.7541 23.2687C39.7779 22.5527 39.7899 21.789 39.7899 20.9776C39.7899 20.1662 39.7899 19.4025 39.7899 18.6865V17.0398C39.7899 16.3239 39.7899 15.5602 39.7899 14.7488C39.7899 13.9373 39.7779 13.1856 39.7541 12.4935C39.7541 11.7775 39.7183 11.157 39.6467 10.632C39.5989 10.0831 39.5154 9.71318 39.3961 9.52226H42.4747C42.3077 9.78478 42.2003 10.3695 42.1525 11.2764C42.1048 12.1594 42.0809 13.1259 42.0809 14.176C42.7253 12.6248 43.5964 11.4315 44.6942 10.5962C45.792 9.73705 46.8182 9.30747 47.7728 9.30747C48.0831 9.30747 48.3933 9.34327 48.7036 9.41487C49.0138 9.48646 49.3241 9.60579 49.6343 9.77285C49.4195 10.0354 49.2525 10.4172 49.1331 10.9184C49.0138 11.4196 48.9422 11.8611 48.9184 12.2429C48.6081 12.0043 48.2382 11.8253 47.8086 11.7059C47.4029 11.5627 46.9733 11.4912 46.5199 11.4912C45.1357 11.4912 44.0498 12.1594 43.2623 13.4958C42.4986 14.8084 42.1048 16.4074 42.0809 18.2928V19.7605C42.0809 21.1208 42.0929 22.4573 42.1167 23.7699C42.1406 25.0824 42.2599 25.8939 42.4747 26.2041H39.3961Z" fill="black"/>
<path d="M59.5347 9.95184C58.4369 9.95184 57.4942 10.1786 56.7067 10.632C55.943 11.0616 55.3105 11.6463 54.8094 12.3861C54.3321 13.1259 53.9741 13.9731 53.7354 14.9278C53.4968 15.8824 53.3774 16.8728 53.3774 17.899C53.3774 18.7104 53.449 19.5696 53.5922 20.4764C53.7593 21.3833 54.0457 22.2186 54.4514 22.9823C54.8571 23.746 55.4179 24.3904 56.1339 24.9154C56.8498 25.4166 57.7567 25.6672 58.8545 25.6672C59.9046 25.6672 60.9785 25.3688 62.0764 24.7722C63.1742 24.1756 63.9856 23.3999 64.5106 22.4453V12.6367C64.0572 11.7537 63.3651 11.0854 62.4343 10.632C61.5275 10.1786 60.5609 9.95184 59.5347 9.95184ZM66.7659 4.40315V21.622C66.7659 22.7914 66.8852 23.7102 67.1239 24.3784C67.3625 25.0467 67.8518 25.5359 68.5916 25.8461V26.5263C67.279 26.5263 66.384 26.3473 65.9067 25.9893C65.4294 25.6075 65.0714 25.0466 64.8328 24.3068C63.9498 25.0944 62.9952 25.6791 61.969 26.0609C60.9427 26.4428 59.8807 26.6337 58.7829 26.6337C56.0146 26.6337 53.9741 25.7984 52.6615 24.1278C51.3728 22.4573 50.7284 20.3929 50.7284 17.9348C50.7284 15.0948 51.5398 12.8992 53.1627 11.348C54.8094 9.77285 56.7902 8.98529 59.1051 8.98529C59.9881 8.98529 60.907 9.09269 61.8616 9.30747C62.84 9.52226 63.7231 9.91604 64.5106 10.4888V4.68954C64.5106 3.94971 64.4629 3.25762 64.3674 2.61325C64.2958 1.96889 64.1407 1.45578 63.9021 1.07394C64.4271 0.978479 64.9044 0.847219 65.334 0.680161C65.7635 0.48924 66.205 0.262519 66.6585 0C66.7062 0.76369 66.7301 1.51545 66.7301 2.25527C66.754 2.97123 66.7659 3.68719 66.7659 4.40315Z" fill="black"/>
<path d="M80.2296 26.6337C77.6044 26.6337 75.4804 25.8223 73.8575 24.1994C72.2585 22.5766 71.4591 20.4526 71.4591 17.8274C71.4591 16.658 71.65 15.5363 72.0318 14.4624C72.4137 13.3884 72.9745 12.4577 73.7143 11.6701C74.4542 10.8587 75.373 10.2144 76.4708 9.73705C77.5686 9.23588 78.8215 8.98529 80.2296 8.98529C82.8547 8.98529 84.9668 9.79671 86.5658 11.4196C88.1886 13.0424 89.0001 15.1664 89.0001 17.7916C89.0001 18.961 88.8091 20.0827 88.4273 21.1566C88.0455 22.2305 87.4846 23.1732 86.7448 23.9846C86.005 24.7722 85.0862 25.4166 83.9883 25.9177C82.8905 26.395 81.6376 26.6337 80.2296 26.6337ZM80.2296 25.7029C82.1627 25.7029 83.6662 24.9631 84.7401 23.4835C85.8379 21.98 86.3868 20.0707 86.3868 17.7558C86.3868 15.4647 85.8379 13.5794 84.7401 12.0997C83.6662 10.6201 82.1627 9.88024 80.2296 9.88024C78.2965 9.88024 76.781 10.632 75.6832 12.1355C74.6093 13.6152 74.0723 15.5125 74.0723 17.8274C74.0723 20.1423 74.6093 22.0277 75.6832 23.4835C76.781 24.9393 78.2965 25.6791 80.2296 25.7029Z" fill="black"/>
<path d="M9.53183 39.2781C9.15793 39.2027 8.62257 39.0099 8.61407 38.5155C8.60557 37.6441 9.91423 37.4765 10.4581 37.996L10.7215 37.7111C9.90573 36.9569 8.18068 37.267 8.18068 38.5155C8.18918 39.2111 8.79252 39.5546 9.44685 39.6636C9.83775 39.739 10.4241 39.982 10.4326 40.4596C10.3561 41.4903 8.8775 41.5155 8.35913 40.8116C8.29115 40.887 8.18068 40.9959 8.0957 41.0797C8.41012 41.4819 8.90299 41.6914 9.41286 41.6914C10.0417 41.6914 10.866 41.306 10.866 40.468C10.866 39.7557 10.2032 39.4122 9.53183 39.2781Z" fill="black"/>
<path d="M16.86 38.1887C17.1404 37.8535 17.5568 37.7027 18.0412 37.7111C18.8994 37.7446 19.5793 38.3144 19.5878 39.2027V41.616H20.0296V39.2027C20.0296 38.0044 19.1714 37.3256 18.0582 37.3089C17.6333 37.3089 17.1659 37.4597 16.86 37.753V35.7502H16.4181V41.616H16.86V38.1887Z" fill="black"/>
<path d="M25.9471 39.496C25.9471 38.3312 26.8053 37.6776 27.6381 37.6776C28.4794 37.6776 29.3377 38.3312 29.3377 39.496C29.3377 40.6607 28.4794 41.3395 27.6381 41.3395C26.8053 41.3395 25.9471 40.6607 25.9471 39.496ZM29.7796 39.496C29.7796 38.306 28.8703 37.2753 27.6381 37.2753C26.4145 37.2753 25.5052 38.306 25.5052 39.496C25.5052 40.6859 26.4145 41.7166 27.6381 41.7166C28.8703 41.7166 29.7796 40.6859 29.7796 39.496Z" fill="black"/>
<path d="M37.2683 37.3927L36.376 41.2473H36.342L35.2798 37.3675H34.8209L36.0531 41.6244H36.682L37.5572 37.8284H37.5827L38.4665 41.6244H39.0868L40.3445 37.3675H39.8686L38.8064 41.2473H38.7724L37.8631 37.3927H37.2683Z" fill="black"/>
<path d="M45.7039 37.3675V41.616H46.1373V38.8926C46.1118 37.8954 47.1655 37.4597 47.9728 37.8452L48.1512 37.4848C47.6584 37.2753 46.6386 37.1161 46.1288 37.9206L46.0608 37.3675H45.7039Z" fill="black"/>
<path d="M53.3491 39.496C53.3491 38.3312 54.2074 37.6776 55.0401 37.6776C55.8814 37.6776 56.7397 38.3312 56.7397 39.496C56.7397 40.6607 55.8814 41.3395 55.0401 41.3395C54.2074 41.3395 53.3491 40.6607 53.3491 39.496ZM57.1816 39.496C57.1816 38.306 56.2723 37.2753 55.0401 37.2753C53.8165 37.2753 52.9072 38.306 52.9072 39.496C52.9072 40.6859 53.8165 41.7166 55.0401 41.7166C56.2723 41.7166 57.1816 40.6859 57.1816 39.496Z" fill="black"/>
<path d="M62.8178 39.496C62.8178 38.3312 63.6761 37.6776 64.5089 37.6776C65.3501 37.6776 66.2084 38.3312 66.2084 39.496C66.2084 40.6607 65.3501 41.3395 64.5089 41.3395C63.6761 41.3395 62.8178 40.6607 62.8178 39.496ZM66.6503 39.496C66.6503 38.306 65.741 37.2753 64.5089 37.2753C63.2852 37.2753 62.3759 38.306 62.3759 39.496C62.3759 40.6859 63.2852 41.7166 64.5089 41.7166C65.741 41.7166 66.6503 40.6859 66.6503 39.496Z" fill="black"/>
<path d="M73.8161 37.6859C74.6404 37.6859 75.0908 38.1217 75.1248 39.0016L75.1418 41.616H75.5582C75.5582 40.8032 75.5582 39.8144 75.5582 39.0016C75.5667 37.996 76.1445 37.6943 76.8158 37.6943C77.4702 37.6943 78.0565 38.0966 78.0565 39.0854V41.616H78.4984V39.0854C78.4984 37.7949 77.7421 37.3005 76.8158 37.3005C76.2465 37.3005 75.7026 37.3927 75.3287 38.1385C75.0653 37.51 74.5724 37.3256 73.8331 37.2921C73.4082 37.2921 72.9408 37.4346 72.6349 37.7278L72.5754 37.3675H72.193V41.616H72.6349V38.172C72.9153 37.8368 73.3317 37.6776 73.8161 37.6859Z" fill="black"/>
</svg>
