<svg width="9" height="9" viewBox="0 0 9 9" fill="none" xmlns="http://www.w3.org/2000/svg">
<path fill-rule="evenodd" clip-rule="evenodd" d="M2.47512 1.50002C1.93737 1.50002 1.50012 1.93727 1.50012 2.47502C1.50012 5.24551 3.75425 7.50001 6.52512 7.50001C7.0625 7.50001 7.50012 7.06276 7.50012 6.52501C7.50012 6.48339 7.4975 6.44251 7.49225 6.40201L5.75975 6.00451C5.72525 6.07051 5.68737 6.14214 5.65287 6.20889C5.48187 6.53514 5.35812 6.77214 5.04237 6.64501C3.80262 6.21001 2.7905 5.19751 2.34987 3.94276C2.216 3.64839 2.471 3.51489 2.79425 3.34614C2.85987 3.31164 2.93075 3.27451 2.99562 3.24077L2.59812 1.50789C2.5565 1.50264 2.516 1.50002 2.47512 1.50002ZM6.52512 8.25C3.34062 8.25 0.750122 5.6595 0.750122 2.475C0.750122 1.52362 1.52375 0.75 2.47512 0.75C2.57262 0.75 2.669 0.75825 2.76237 0.774375C2.8535 0.789 2.945 0.81225 3.03425 0.843C3.15612 0.885375 3.248 0.98775 3.27687 1.11375L3.79025 3.35025C3.81875 3.47325 3.78312 3.60225 3.69537 3.69375C3.64437 3.747 3.64325 3.74812 3.17825 3.9915C3.55475 4.80675 4.20912 5.45887 5.00787 5.82262C5.25162 5.35725 5.25312 5.35575 5.30637 5.30475C5.39787 5.217 5.52762 5.18287 5.64987 5.20987L7.88675 5.72325C8.01237 5.75212 8.11475 5.84362 8.15675 5.9655C8.1875 6.054 8.21075 6.1455 8.22612 6.23962C8.24187 6.33225 8.25012 6.42825 8.25012 6.525C8.25012 7.47637 7.47612 8.25 6.52512 8.25Z" fill="#969696"/>
<mask id="mask0" mask-type="alpha" maskUnits="userSpaceOnUse" x="0" y="0" width="9" height="9">
<path fill-rule="evenodd" clip-rule="evenodd" d="M2.47512 1.50002C1.93737 1.50002 1.50012 1.93727 1.50012 2.47502C1.50012 5.24551 3.75425 7.50001 6.52512 7.50001C7.0625 7.50001 7.50012 7.06276 7.50012 6.52501C7.50012 6.48339 7.4975 6.44251 7.49225 6.40201L5.75975 6.00451C5.72525 6.07051 5.68737 6.14214 5.65287 6.20889C5.48187 6.53514 5.35812 6.77214 5.04237 6.64501C3.80262 6.21001 2.7905 5.19751 2.34987 3.94276C2.216 3.64839 2.471 3.51489 2.79425 3.34614C2.85987 3.31164 2.93075 3.27451 2.99562 3.24077L2.59812 1.50789C2.5565 1.50264 2.516 1.50002 2.47512 1.50002ZM6.52512 8.25C3.34062 8.25 0.750122 5.6595 0.750122 2.475C0.750122 1.52362 1.52375 0.75 2.47512 0.75C2.57262 0.75 2.669 0.75825 2.76237 0.774375C2.8535 0.789 2.945 0.81225 3.03425 0.843C3.15612 0.885375 3.248 0.98775 3.27687 1.11375L3.79025 3.35025C3.81875 3.47325 3.78312 3.60225 3.69537 3.69375C3.64437 3.747 3.64325 3.74812 3.17825 3.9915C3.55475 4.80675 4.20912 5.45887 5.00787 5.82262C5.25162 5.35725 5.25312 5.35575 5.30637 5.30475C5.39787 5.217 5.52762 5.18287 5.64987 5.20987L7.88675 5.72325C8.01237 5.75212 8.11475 5.84362 8.15675 5.9655C8.1875 6.054 8.21075 6.1455 8.22612 6.23962C8.24187 6.33225 8.25012 6.42825 8.25012 6.525C8.25012 7.47637 7.47612 8.25 6.52512 8.25Z" fill="white"/>
</mask>
<g mask="url(#mask0)">
<rect width="9" height="9" fill="#969696"/>
</g>
</svg>
