<svg width="27" height="15" viewBox="0 0 27 15" fill="none" xmlns="http://www.w3.org/2000/svg">
<path fill-rule="evenodd" clip-rule="evenodd" d="M14.6411 14.8709C14.6411 14.8709 15.1224 14.8184 15.3689 14.5585C15.5945 14.3204 15.5867 13.871 15.5867 13.871C15.5867 13.871 15.5567 11.7727 16.5492 11.4629C17.5275 11.1581 18.7835 13.4921 20.1164 14.3895C21.1233 15.0681 21.8876 14.9196 21.8876 14.9196L25.4496 14.8709C25.4496 14.8709 27.3121 14.7583 26.4291 13.3205C26.356 13.2027 25.9139 12.2566 23.7814 10.3132C21.5472 8.27883 21.8472 8.60786 24.5366 5.08841C26.1747 2.94525 26.8295 1.63682 26.6247 1.07735C26.4304 0.542195 25.2252 0.684304 25.2252 0.684304L21.2159 0.708629C21.2159 0.708629 20.9185 0.668941 20.6981 0.798248C20.4829 0.924994 20.3434 1.22073 20.3434 1.22073C20.3434 1.22073 19.7095 2.87868 18.863 4.28953C17.0775 7.26486 16.364 7.42234 16.0719 7.23798C15.3924 6.80653 15.5619 5.50706 15.5619 4.58399C15.5619 1.69955 16.008 0.497385 14.6946 0.186281C14.259 0.0825797 13.9381 0.0147256 12.823 0.00320327C11.3922 -0.0108796 10.1818 0.00832431 9.49577 0.337352C9.03928 0.556278 8.68712 1.04534 8.90233 1.0735C9.1671 1.10807 9.76706 1.23226 10.0853 1.65731C10.4961 2.20654 10.4818 3.43815 10.4818 3.43815C10.4818 3.43815 10.7179 6.83341 9.93009 7.25462C9.39012 7.54396 8.6493 6.95376 7.05679 4.25368C6.24162 2.871 5.62601 1.34236 5.62601 1.34236C5.62601 1.34236 5.50732 1.05686 5.29472 0.903229C5.03778 0.717591 4.67911 0.659979 4.67911 0.659979L0.869344 0.684304C0.869344 0.684304 0.296771 0.699667 0.0867838 0.944198C-0.0997265 1.16056 0.0724369 1.60994 0.0724369 1.60994C0.0724369 1.60994 3.0553 8.46063 6.43335 11.9135C9.53099 15.0783 13.0473 14.8709 13.0473 14.8709H14.6411Z" fill="#4C6C91"/>
</svg>
