<svg width="22" height="22" viewBox="0 0 22 22" fill="none" xmlns="http://www.w3.org/2000/svg">
<path d="M3.6665 6.41663H18.3332" stroke="#969696" stroke-width="1.5" stroke-linecap="round" stroke-linejoin="round"/>
<path d="M9.1665 10.0834V15.5834" stroke="#969696" stroke-width="1.5" stroke-linecap="round" stroke-linejoin="round"/>
<path d="M12.8335 10.0834V15.5834" stroke="#969696" stroke-width="1.5" stroke-linecap="round" stroke-linejoin="round"/>
<path d="M4.5835 6.41663L5.50016 17.4166C5.50016 17.9029 5.69332 18.3692 6.03713 18.713C6.38095 19.0568 6.84727 19.25 7.3335 19.25H14.6668C15.1531 19.25 15.6194 19.0568 15.9632 18.713C16.307 18.3692 16.5002 17.9029 16.5002 17.4166L17.4168 6.41663" stroke="#969696" stroke-width="1.5" stroke-linecap="round" stroke-linejoin="round"/>
<path d="M8.25 6.41667V3.66667C8.25 3.42355 8.34658 3.19039 8.51849 3.01849C8.69039 2.84658 8.92355 2.75 9.16667 2.75H12.8333C13.0764 2.75 13.3096 2.84658 13.4815 3.01849C13.6534 3.19039 13.75 3.42355 13.75 3.66667V6.41667" stroke="#969696" stroke-width="1.5" stroke-linecap="round" stroke-linejoin="round"/>
</svg>
