<svg width="20" height="20" viewBox="0 0 20 20" fill="none" xmlns="http://www.w3.org/2000/svg">
<path fill-rule="evenodd" clip-rule="evenodd" d="M5.86137 5.00002C6.10637 3.17934 7.92584 1.66669 10 1.66669C12.0743 1.66669 13.8937 3.17934 14.1387 5.00002H16.5392C17.4597 5.00002 18.2059 5.74621 18.2059 6.66669C18.2059 6.74555 18.2003 6.82432 18.1891 6.90239L16.7605 16.9024C16.6433 17.7235 15.94 18.3334 15.1106 18.3334H4.88946C4.06004 18.3334 3.35684 17.7235 3.23954 16.9024L1.81097 6.90239C1.68079 5.99117 2.31396 5.14695 3.22518 5.01677C3.30326 5.00562 3.38202 5.00002 3.46089 5.00002H5.86137ZM12.44 5.00002C12.1866 4.11509 11.1651 3.33335 10.0001 3.33335C8.83504 3.33335 7.81349 4.11509 7.56016 5.00002H12.44ZM3.46086 6.66669H5.83335V8.33335H7.50002V6.66669H12.5V8.33335H14.1667V6.66669H16.5392L15.1106 16.6667H4.88943L3.46086 6.66669Z" fill="black"/>
</svg>
