<svg width="14" height="14" viewBox="0 0 14 14" fill="none" xmlns="http://www.w3.org/2000/svg">
<path d="M6.97682 12.7908H1.74419C1.42325 12.7908 1.1628 12.5304 1.1628 12.2094V1.74422C1.1628 1.42328 1.42328 1.16283 1.74419 1.16283H6.97682C7.29833 1.16283 7.5582 0.902953 7.5582 0.581442C7.5582 0.259932 7.29833 0 6.97682 0H1.74419C0.782557 0 0 0.782585 0 1.74422V12.2094C0 13.171 0.782557 13.9536 1.74419 13.9536H6.97682C7.29833 13.9536 7.5582 13.6937 7.5582 13.3722C7.5582 13.0507 7.29833 12.7908 6.97682 12.7908Z" fill="#969696"/>
<path d="M13.827 6.56289L10.2921 3.07449C10.0642 2.8489 9.69559 2.85182 9.47001 3.08031C9.24442 3.3088 9.24674 3.67682 9.47583 3.90241L12.002 6.39544H5.23275C4.91124 6.39544 4.65137 6.65532 4.65137 6.97683C4.65137 7.29834 4.91124 7.55824 5.23275 7.55824H12.002L9.47583 10.0513C9.24677 10.2769 9.24502 10.6449 9.47001 10.8734C9.58395 10.9885 9.73396 11.0466 9.88397 11.0466C10.0317 11.0466 10.1793 10.9908 10.2921 10.8792L13.827 7.39076C13.9375 7.28147 14.0003 7.13261 14.0003 6.9768C14.0003 6.82105 13.9381 6.67279 13.827 6.56289Z" fill="#969696"/>
</svg>
