<svg width="20" height="20" viewBox="0 0 20 20" fill="none" xmlns="http://www.w3.org/2000/svg">
<path fill-rule="evenodd" clip-rule="evenodd" d="M13.7943 1.6667C12.5879 1.66669 11.8103 1.81041 10.9189 2.24675C10.5888 2.4083 10.2792 2.60285 9.99162 2.82982C9.71514 2.61557 9.41788 2.42995 9.10149 2.27347C8.19274 1.824 7.37521 1.66669 6.2121 1.66669C3.09701 1.66669 0.833313 4.24774 0.833313 7.59992C0.833313 10.1315 2.24484 12.5769 4.87401 14.9416C6.25406 16.1828 8.01608 17.4111 9.27798 18.0646L9.99998 18.4385L10.722 18.0646C11.9839 17.4111 13.7459 16.1828 15.1259 14.9416C17.7551 12.5769 19.1666 10.1315 19.1666 7.59992C19.1666 4.28322 16.8816 1.67949 13.7943 1.6667ZM17.5 7.59992C17.5 9.58327 16.3218 11.6245 14.0114 13.7024C12.7518 14.8353 11.1325 15.9675 10 16.5614C8.86753 15.9675 7.24818 14.8353 5.98856 13.7024C3.67819 11.6245 2.5 9.58327 2.5 7.59992C2.5 5.12312 4.0697 3.33335 6.21212 3.33335C7.1369 3.33335 7.70677 3.44301 8.36261 3.76739C8.75 3.95899 9.0924 4.212 9.38878 4.52816L10.0019 5.18227L10.6095 4.52298C10.9126 4.19415 11.26 3.93538 11.6516 3.74371C12.2882 3.4321 12.8225 3.33335 13.7909 3.33336C15.9068 3.34213 17.5 5.15749 17.5 7.59992Z" fill="black"/>
</svg>
